<?xml version="1.0" standalone="no"?><!DOCTYPE svg PUBLIC "-//W3C//DTD SVG 1.1//EN" "http://www.w3.org/Graphics/SVG/1.1/DTD/svg11.dtd"><svg t="1575963653727" class="icon" viewBox="0 0 1024 1024" version="1.1" xmlns="http://www.w3.org/2000/svg" p-id="5530" xmlns:xlink="http://www.w3.org/1999/xlink" width="200" height="200"><defs><style type="text/css"></style></defs><path d="M709.4 246.4H198.6c-51 0-92.4 41.5-92.4 92.4v510.8c0 51 41.5 92.4 92.4 92.4h510.8c51 0 92.4-41.5 92.4-92.4V338.8c0-50.9-41.4-92.4-92.4-92.4z m-510.8 30h510.8c34.4 0 62.4 28 62.4 62.4v108.5H136.2V338.8c0-34.4 28-62.4 62.4-62.4zM709.4 912H198.6c-34.4 0-62.4-28-62.4-62.4V477.3h635.6v372.3c0 34.4-28 62.4-62.4 62.4z" fill="#282C37" p-id="5531"></path><path d="M247.7 381.5h334c8.3 0 15-6.7 15-15s-6.7-15-15-15h-334c-8.3 0-15 6.7-15 15s6.7 15 15 15z" fill="#282C37" p-id="5532"></path><path d="M660.567181 381.235108a20.8 20.8 0 1 0 29.415128-29.416156 20.8 20.8 0 1 0-29.415128 29.416156Z" fill="#282C37" p-id="5533"></path><path d="M845.9 81H315.4c-49.6 0-90 40.4-90 90v15.5c0 8.3 6.7 15 15 15s15-6.7 15-15V171c0-33.1 26.9-60 60-60h530.4c33.1 0 60 26.9 60 60v572c0 19.8-16.1 36-36 36-8.3 0-15 6.7-15 15s6.7 15 15 15c36.4 0 66-29.6 66-66V171c0.1-49.6-40.3-90-89.9-90zM245.4 719.6c-13.8-13.8-14.2-35.8-0.8-50.1l82.3-87.7c5.7-6 5.4-15.5-0.7-21.2-6-5.7-15.5-5.4-21.2 0.7L222.7 649c-11.8 12.6-18.1 29-17.8 46.2 0.3 17.2 7.1 33.4 19.3 45.6l81.1 81.1c2.9 2.9 6.8 4.4 10.6 4.4s7.7-1.5 10.6-4.4c5.9-5.9 5.9-15.4 0-21.2l-81.1-81.1zM597.1 561.3c-5.7-6-15.2-6.4-21.2-0.7s-6.4 15.2-0.7 21.2l82.3 87.7c13.4 14.3 13 36.2-0.8 50.1l-81.1 81.1c-5.9 5.9-5.9 15.4 0 21.2 2.9 2.9 6.8 4.4 10.6 4.4s7.7-1.5 10.6-4.4l81.1-81.1c12.2-12.2 19-28.4 19.3-45.6 0.3-17.2-6.1-33.6-17.8-46.2l-82.3-87.7zM507.1 552.4c-7.7-3-16.4 0.7-19.5 8.4l-96.8 245c-3 7.7 0.7 16.4 8.4 19.5 1.8 0.7 3.7 1.1 5.5 1.1 6 0 11.6-3.6 14-9.5l96.8-245c3-7.8-0.7-16.5-8.4-19.5z" fill="#282C37" p-id="5534"></path></svg>