<?xml version="1.0" standalone="no"?><!DOCTYPE svg PUBLIC "-//W3C//DTD SVG 1.1//EN" "http://www.w3.org/Graphics/SVG/1.1/DTD/svg11.dtd"><svg t="1644460805731" class="icon" viewBox="0 0 1024 1024" version="1.1" xmlns="http://www.w3.org/2000/svg" p-id="2580" xmlns:xlink="http://www.w3.org/1999/xlink" width="200" height="200"><defs><style type="text/css"></style></defs><path d="M875.633778 56.888889H148.366222A98.602667 98.602667 0 0 0 49.777778 155.477333v713.045334a98.616889 98.616889 0 0 0 98.588444 98.602666h727.267556a98.602667 98.602667 0 0 0 98.588444-98.602666h0.014222V155.477333A98.602667 98.602667 0 0 0 875.633778 56.888889zM148.366222 113.777778h727.267556a41.699556 41.699556 0 0 1 41.699555 41.699555h0.014223V241.777778H106.666667v-86.300445A41.699556 41.699556 0 0 1 148.366222 113.777778z m727.267556 796.444444H148.366222A41.699556 41.699556 0 0 1 106.666667 868.522667V270.222222h810.680889v598.300445A41.699556 41.699556 0 0 1 875.633778 910.222222z" fill="" p-id="2581"></path><path d="M158.136889 199.111111h14.222222a14.222222 14.222222 0 1 0 0-28.444444h-14.222222a14.222222 14.222222 0 1 0 0 28.444444zM257.692444 199.111111h14.222223a14.222222 14.222222 0 1 0 0-28.444444h-14.222223a14.222222 14.222222 0 1 0 0 28.444444zM357.248 199.111111h14.222222a14.222222 14.222222 0 1 0 0-28.444444h-14.222222a14.222222 14.222222 0 1 0 0 28.444444zM247.537778 599.722667l73.059555-90.168889a14.193778 14.193778 0 1 0-22.087111-17.905778l-80.312889 99.128889a14.250667 14.250667 0 0 0 0 17.92l130.375111 160.896a14.222222 14.222222 0 0 0 19.982223 2.076444 14.222222 14.222222 0 0 0 2.090666-19.996444l-123.107555-151.950222zM348.572444 429.895111l-12.999111 16.028445a14.222222 14.222222 0 0 0 22.087111 17.92l12.999112-16.028445a14.222222 14.222222 0 0 0-22.087112-17.92zM678.812444 429.880889a14.222222 14.222222 0 0 0-22.072888 17.92l123.107555 151.921778-123.107555 151.950222a14.193778 14.193778 0 0 0 11.036444 23.168 14.208 14.208 0 0 0 11.036444-5.248l130.360889-160.896a14.179556 14.179556 0 0 0 0-17.92l-130.360889-160.896zM573.767111 515.214222l-130.375111 160.896a14.208 14.208 0 1 0 22.087111 17.92l130.375111-160.896c4.949333-6.115556 3.996444-15.075556-2.090666-20.024889a14.250667 14.250667 0 0 0-19.996445 2.104889z" fill="" p-id="2582"></path></svg>