<?xml version="1.0" standalone="no"?><!DOCTYPE svg PUBLIC "-//W3C//DTD SVG 1.1//EN" "http://www.w3.org/Graphics/SVG/1.1/DTD/svg11.dtd"><svg t="1644548571034" class="icon" viewBox="0 0 1024 1024" version="1.1" xmlns="http://www.w3.org/2000/svg" p-id="2580" xmlns:xlink="http://www.w3.org/1999/xlink" width="200" height="200"><defs><style type="text/css"></style></defs><path d="M974.279111 591.132444c0-118.087111-101.319111-126.933333-185.002667-127.601777v-47.018667c0-15.715556-14.165333-24.448-29.866666-24.448h-682.666667c-15.701333 0-27.022222 8.746667-27.022222 24.448v402.474667c0 100.935111 19.911111 156.174222 136.419555 156.174222h455.111112c92.600889 0 134.997333-32.256 145.336888-111.872 108.216889-15.260444 187.690667-169.955556 187.690667-272.156445zM732.387556 818.986667c0 81.038222-14.833778 99.285333-91.136 99.285333h-455.111112c-72.632889 0-79.530667-13.781333-79.530666-99.285333V448.952889h625.777778v370.033778z m56.888888-14.435556V520.476444c95.601778 1.365333 128.113778 13.909333 128.113778 70.670223 0 74.609778-57.884444 193.493333-128.113778 213.404444z" fill="" p-id="2581"></path><path d="M157.667556 658.56c3.697778 0 7.395556-1.550222 10.097777-4.110222 2.56-2.688 4.124444-6.385778 4.124445-10.112 0-3.84-1.564444-7.395556-4.124445-10.083556-5.262222-5.276444-14.933333-5.276444-20.195555 0a14.392889 14.392889 0 0 0 0 20.195556c2.702222 2.545778 6.4 4.110222 10.097778 4.110222zM149.276444 715.164444v48.64c0 80.839111 23.864889 105.486222 104.462223 105.486223a14.222222 14.222222 0 1 0 0-28.444445c-65.251556 0-76.017778-11.52-76.017778-77.041778v-48.64a14.222222 14.222222 0 1 0-28.444445 0zM322.816 223.516444c10.680889 9.6 11.776 16.682667 11.690667 21.148445-0.298667 13.340444-13.681778 32.199111-35.811556 50.474667a28.444444 28.444444 0 1 0 36.224 43.875555c36.266667-29.952 55.793778-62.136889 56.462222-93.127111 0.341333-16.64-4.664889-41.358222-30.520889-64.64-43.050667-38.741333-48-55.864889-25.216-87.281778a28.444444 28.444444 0 1 0-46.051555-33.393778c-58.382222 80.512 3.484444 136.192 33.223111 162.944zM493.482667 223.516444c10.680889 9.6 11.776 16.682667 11.690666 21.148445-0.298667 13.340444-13.681778 32.199111-35.811555 50.474667a28.444444 28.444444 0 1 0 36.224 43.875555c36.280889-29.952 55.808-62.136889 56.476444-93.127111 0.327111-16.64-4.664889-41.358222-30.520889-64.64-43.050667-38.741333-48-55.864889-25.216-87.281778a28.444444 28.444444 0 1 0-46.051555-33.393778c-58.396444 80.512 3.470222 136.192 33.208889 162.944z" fill="" p-id="2582"></path></svg>