<?xml version="1.0" standalone="no"?><!DOCTYPE svg PUBLIC "-//W3C//DTD SVG 1.1//EN" "http://www.w3.org/Graphics/SVG/1.1/DTD/svg11.dtd"><svg t="1575624204419" class="icon" viewBox="0 0 1024 1024" version="1.1" xmlns="http://www.w3.org/2000/svg" p-id="4025" xmlns:xlink="http://www.w3.org/1999/xlink" width="200" height="200"><defs><style type="text/css"></style></defs><path d="M954.181818 139.636364h-162.909091V69.818182c0-25.6-20.945455-46.545455-46.545454-46.545455H279.272727c-25.6 0-46.545455 20.945455-46.545454 46.545455v69.818182H69.818182c-25.6 0-46.545455 20.945455-46.545455 46.545454v46.545455c0 253.672727 193.163636 463.127273 442.181818 486.4V814.545455h-46.545454c-76.8 0-139.636364 62.836364-139.636364 139.636363v46.545455h465.454546v-46.545455c0-76.8-62.836364-139.636364-139.636364-139.636363h-46.545454v-95.418182c249.018182-23.272727 442.181818-232.727273 442.181818-486.4V186.181818c0-25.6-20.945455-46.545455-46.545455-46.545454zM116.363636 232.727273h116.363637v209.454545c0 27.927273 4.654545 55.854545 11.636363 81.454546C165.236364 451.490909 116.363636 349.090909 116.363636 232.727273z m663.272728 290.909091c6.981818-25.6 11.636364-53.527273 11.636363-81.454546v-209.454545h116.363637c0 116.363636-48.872727 218.763636-128 290.909091z" fill="rgba(0, 0, 0, 0.65)" p-id="4026"></path></svg>