<?xml version="1.0" standalone="no"?><!DOCTYPE svg PUBLIC "-//W3C//DTD SVG 1.1//EN" "http://www.w3.org/Graphics/SVG/1.1/DTD/svg11.dtd"><svg t="1644460848322" class="icon" viewBox="0 0 1024 1024" version="1.1" xmlns="http://www.w3.org/2000/svg" p-id="2716" xmlns:xlink="http://www.w3.org/1999/xlink" width="200" height="200"><defs><style type="text/css"></style></defs><path d="M712.803556 903.111111h-384a28.444444 28.444444 0 0 0 0 56.888889h384a28.444444 28.444444 0 0 0 0-56.888889zM882.744889 64H141.255111A98.602667 98.602667 0 0 0 42.666667 162.588444v528.156445a98.616889 98.616889 0 0 0 98.588444 98.602667h741.489778A98.602667 98.602667 0 0 0 981.333333 690.744889V162.588444A98.602667 98.602667 0 0 0 882.744889 64zM99.555556 220.444444h824.903111v384H99.555556v-384z m41.699555-99.555555h741.489778A41.699556 41.699556 0 0 1 924.444444 162.588444h0.014223V192H99.555556v-29.411556A41.699556 41.699556 0 0 1 141.255111 120.888889z m741.489778 611.555555H141.255111A41.699556 41.699556 0 0 1 99.555556 690.744889V632.888889h824.903111v57.856a41.699556 41.699556 0 0 1-41.713778 41.699555z" fill="" p-id="2717"></path><path d="M471.324444 390.513778a14.193778 14.193778 0 0 0-18.417777 8.078222l-3.854223 9.898667a14.193778 14.193778 0 0 0 13.226667 19.384889c5.688889 0 11.064889-3.427556 13.269333-9.045334l3.854223-9.898666a14.208 14.208 0 0 0-8.078223-18.417778zM453.560889 436.096a14.165333 14.165333 0 0 0-18.403556 8.078222l-40.334222 103.580445a14.179556 14.179556 0 0 0 13.226667 19.384889c5.703111 0 11.079111-3.441778 13.269333-9.059556l40.334222-103.566222a14.222222 14.222222 0 0 0-8.092444-18.417778zM414.563556 291.470222a14.193778 14.193778 0 0 0-18.417778 8.092445l-58.965334 151.495111a14.193778 14.193778 0 0 0 13.240889 19.370666c5.688889 0 11.064889-3.441778 13.269334-9.059555l58.965333-151.495111a14.193778 14.193778 0 0 0-8.092444-18.403556zM336.568889 491.776a14.222222 14.222222 0 0 0-18.417778 8.078222l-8.661333 22.272a14.193778 14.193778 0 0 0 13.226666 19.384889c5.703111 0 11.079111-3.441778 13.269334-9.045333l8.661333-22.272a14.193778 14.193778 0 0 0-8.078222-18.417778z" fill="" p-id="2718"></path></svg>