<?xml version="1.0" standalone="no"?><!DOCTYPE svg PUBLIC "-//W3C//DTD SVG 1.1//EN" "http://www.w3.org/Graphics/SVG/1.1/DTD/svg11.dtd"><svg t="1644462701006" class="icon" viewBox="0 0 1024 1024" version="1.1" xmlns="http://www.w3.org/2000/svg" p-id="2715" xmlns:xlink="http://www.w3.org/1999/xlink" width="200" height="200"><defs><style type="text/css"></style></defs><path d="M526.336 49.777778h-25.543111C306.645333 49.777778 149.333333 202.353778 149.333333 391.281778v479.516444c0 52.565333 46.549333 103.409778 96.497778 103.409778h4.736c53.902222 0 83.655111-53.831111 83.655111-103.409778v-42.609778c0-17.564444 26.168889-24.618667 44.288-24.618666h4.736c10.723556 0 36.309333 1.379556 36.309334 24.618666v42.609778c0 48.369778 37.248 103.409778 91.633777 103.409778h4.736c52.579556 0 88.519111-54.016 88.519111-103.409778v-42.609778c0-20.380444 25.557333-24.618667 39.409778-24.618666h4.750222c19.896889 0 26.951111 5.12 26.951112 24.618666v42.609778c0 51.612444 49.706667 103.409778 101.006222 103.409778h4.750222c53.048889 0 93.354667-55.139556 93.354667-103.409778V391.281778C874.666667 202.353778 718.023111 49.777778 526.336 49.777778zM817.777778 870.812444c0 22.030222-19.057778 46.520889-36.465778 46.520889h-4.750222c-19.683556 0-44.117333-26.595556-44.117334-46.520889V828.16c0-50.972444-32.540444-81.493333-83.84-81.493333h-4.750222c-56.192 0-96.298667 33.607111-96.298666 81.521777v42.609778c0 20.992-14.179556 46.520889-31.630223 46.520889h-4.736c-17.208889 0-34.744889-24.476444-34.744889-46.520889v-42.609778c0-48.668444-38.712889-81.507556-93.198222-81.507555h-4.736c-49.365333 0-101.176889 27.832889-101.176889 81.507555v42.609778c0 19.029333-9.742222 46.520889-26.766222 46.520889h-4.736c-18.446222 0-39.608889-25.728-39.608889-46.520889V391.281778C206.222222 233.713778 338.005333 106.666667 500.792889 106.666667h25.543111C689.393778 106.666667 817.777778 231.04 817.777778 391.281778v479.530666z" fill="" p-id="2716"></path><path d="M508.828444 162.901333c3.057778 0 6.101333 0.654222 9.130667 0.654223h0.497778c7.623111 0 13.923556-6.499556 14.208-14.179556 0.256-7.850667-5.873778-14.904889-13.724445-15.175111-3.342222-0.128-6.727111-0.113778-10.112-0.113778a14.421333 14.421333 0 0 0 0 28.814222zM580.451556 143.032889a14.478222 14.478222 0 0 0-17.578667 10.183111c-1.976889 7.594667 2.744889 15.36 10.368 17.351111C676.764444 197.532444 746.666667 285.312 746.666667 388.977778v171.662222a14.222222 14.222222 0 1 0 28.444444 0V388.977778c0-116.821333-78.392889-215.651556-194.659555-245.944889zM338.403556 335.274667c-45.809778 0-83.057778 37.262222-83.057778 83.057777s37.248 83.057778 83.057778 83.057778c45.795556 0 83.057778-37.262222 83.057777-83.057778s-37.262222-83.057778-83.057777-83.057777z m0 137.671111a54.684444 54.684444 0 0 1-54.613334-54.613334c0-30.108444 24.504889-54.613333 54.613334-54.613333s54.613333 24.504889 54.613333 54.613333a54.684444 54.684444 0 0 1-54.613333 54.613334zM547.968 335.274667c-45.809778 0-83.057778 37.262222-83.057778 83.057777s37.248 83.057778 83.057778 83.057778c45.795556 0 83.057778-37.262222 83.057778-83.057778s-37.262222-83.057778-83.057778-83.057777z m0 137.671111a54.684444 54.684444 0 0 1-54.613333-54.613334c0-30.108444 24.504889-54.613333 54.613333-54.613333s54.613333 24.504889 54.613333 54.613333a54.684444 54.684444 0 0 1-54.613333 54.613334z" fill="" p-id="2717"></path></svg>