<?xml version="1.0" standalone="no"?><!DOCTYPE svg PUBLIC "-//W3C//DTD SVG 1.1//EN" "http://www.w3.org/Graphics/SVG/1.1/DTD/svg11.dtd"><svg t="1644418089873" class="icon" viewBox="0 0 1024 1024" version="1.1" xmlns="http://www.w3.org/2000/svg" p-id="3094" xmlns:xlink="http://www.w3.org/1999/xlink" width="200" height="200"><defs><style type="text/css"></style></defs><path d="M609.194667 123.861333c-152.817778 0-288.896 88.192-351.616 226.232889-64.739556 8.078222-115.882667 60.572444-121.884445 125.923556C70.044444 517.304889 28.444444 591.971556 28.444444 670.805333c0 126.449778 102.087111 229.333333 227.555556 229.333334h355.555556c2.616889 0 6.471111-0.384 10.695111-2.076445C828.8 891.107556 995.555556 718.776889 995.555556 510.222222 995.555556 297.187556 822.229333 123.861333 609.194667 123.861333z m4.750222 717.496889c-2.517333 0-6.172444 0.355556-10.211556 1.891556H256c-94.108444 0-170.666667-77.354667-170.666667-172.444445 0-63.715556 35.953778-123.776 91.633778-152.931555a28.472889 28.472889 0 0 0 15.217778-26.126222l-0.184889-2.844445c0-45.752889 37.219556-82.972444 81.792-83.000889 0.711111 0.028444 2.289778 0.128 2.986667 0.113778a28.444444 28.444444 0 0 0 26.410666-17.891556c50.318222-125.966222 170.439111-207.374222 306.005334-207.374222C790.855111 180.750222 938.666667 328.561778 938.666667 510.222222c0 180.252444-145.834667 328.803556-324.721778 331.136z" fill="" p-id="3095"></path><path d="M878.094222 461.027556a14.165333 14.165333 0 0 0-15.630222-12.558223 14.392889 14.392889 0 0 0-12.672 15.829334c0.782222 7.253333 1.152 15.118222 1.166222 22.584889 0.014222 7.864889 6.371556 15.032889 14.222222 15.032888h0.042667c7.850667 0 14.208-7.168 14.193778-15.032888 0-8.433778-0.440889-17.664-1.322667-25.856zM850.247111 371.896889a237.696 237.696 0 0 0-208.355555-123.406222 14.222222 14.222222 0 1 0 0 28.444444 209.180444 209.180444 0 0 1 183.409777 108.657778 14.222222 14.222222 0 0 0 24.945778-13.696zM652.700444 516.124444H597.333333c-7.864889 0-14.222222 6.343111-14.222222 14.222223s6.357333 14.222222 14.222222 14.222222h55.367111c9.713778 0 16.782222 2.659556 18.944 7.111111 2.360889 4.864-0.227556 13.027556-6.840888 21.518222l-107.733334 140.700445c-7.054222 8.974222-16.199111 13.895111-25.784889 13.895111-10.083556 0-19.768889-5.276444-27.221333-14.805334l-107.904-139.448888c-6.570667-8.391111-9.159111-16.696889-6.712889-21.688889 2.204444-4.551111 9.258667-7.253333 18.887111-7.253334H469.333333c7.864889 0 19.484444-6.357333 19.484445-14.222222v-59.377778c0-30.805333 19.427556-54.926222 47.388444-54.926222 21.816889 0 35.783111 11.278222 43.790222 31.744 2.858667 7.310222 11.420444 10.922667 18.773334 8.064 7.281778-2.858667 11.562667-11.107556 8.689778-18.432-12.188444-31.203556-38.058667-49.834667-71.409778-49.834667-43.918222 0-75.676444 36.622222-75.676445 83.370667v45.155556H408.263111c-21.077333 0-37.219556 8.490667-44.401778 23.253333-7.466667 15.331556-3.84 34.190222 9.856 51.655111l107.889778 139.448889c12.842667 16.355556 30.933333 25.756444 49.649778 25.756444 18.503111 0 35.612444-8.775111 48.284444-24.903111l107.747556-140.743111c13.710222-17.464889 17.336889-36.195556 9.941333-51.342222-7.153778-14.72-23.395556-23.139556-44.529778-23.139556z" fill="" p-id="3096"></path><path d="M581.560889 479.004444c-2.574222 2.702222-4.138667 6.4-4.138667 10.097778 0 3.697778 1.564444 7.409778 4.138667 10.097778 2.688 2.574222 6.385778 4.124444 10.083555 4.124444s7.409778-1.550222 10.112-4.124444c2.688-2.688 4.110222-6.4 4.110223-10.097778 0-3.697778-1.422222-7.395556-4.110223-10.097778-5.418667-5.262222-14.947556-5.262222-20.195555 0z" fill="" p-id="3097"></path></svg>