<?xml version="1.0" standalone="no"?><!DOCTYPE svg PUBLIC "-//W3C//DTD SVG 1.1//EN" "http://www.w3.org/Graphics/SVG/1.1/DTD/svg11.dtd"><svg t="1644416742372" class="icon" viewBox="0 0 1024 1024" version="1.1" xmlns="http://www.w3.org/2000/svg" p-id="2688" xmlns:xlink="http://www.w3.org/1999/xlink" width="200" height="200"><defs><style type="text/css"></style></defs><path d="M644.081778 675.896889c90.154667-89.528889 151.168-257.052444 151.168-365.084445C795.249778 154.638222 668.16 27.562667 512 27.562667c-156.174222 0-283.249778 127.075556-283.249778 283.249777 0 109.169778 60.003556 273.564444 149.447111 363.377778a85.12 85.12 0 0 0-31.601777 66.247111v142.222223a85.333333 85.333333 0 0 0 85.333333 85.333333h19.313778c6.328889 15.132444 18.56 28.444444 36.920889 28.444444h41.173333c18.360889 0 31.786667-13.312 38.940444-28.444444h20.096a85.333333 85.333333 0 0 0 85.333334-85.333333v-142.222223a85.034667 85.034667 0 0 0-29.624889-64.540444zM404.622222 890.211556a28.16 28.16 0 0 1-1.137778-7.537778v-60.515556l211.356445-91.932444c1.237333 3.185778 1.976889 6.613333 1.976889 10.225778v57.457777l-212.195556 92.302223z m27.306667-178.204445h153.514667L403.484444 791.139556v-50.688a28.444444 28.444444 0 0 1 28.444445-28.444445zM285.639111 310.812444c0-124.814222 101.546667-226.360889 226.360889-226.360888 124.8 0 226.360889 101.546667 226.360889 226.360888 0 104.021333-65.493333 272.298667-153.187556 341.802667l1.991111 2.503111h-144.924444c-88.334222-66.872889-156.600889-239.232-156.600889-344.305778zM588.373333 911.118222h-156.444444c-1.137778 0-2.204444-0.213333-3.313778-0.327111l188.202667-81.863111v53.745778a28.444444 28.444444 0 0 1-28.444445 28.444444z" fill="" p-id="2689"></path><path d="M515.854222 327.992889c3.84 0 7.395556-1.564444 10.083556-4.124445 2.574222-2.702222 4.138667-6.4 4.138666-10.097777s-1.564444-7.409778-4.138666-10.097778c-5.248-5.262222-14.919111-5.262222-20.181334 0-2.574222 2.688-4.124444 6.243556-4.124444 10.097778 0 3.84 1.550222 7.395556 4.124444 10.097777 2.688 2.56 6.4 4.124444 10.097778 4.124445zM517.262222 356.437333a14.222222 14.222222 0 0 0-14.222222 14.222223v71.111111a14.222222 14.222222 0 1 0 28.444444 0v-71.111111a14.222222 14.222222 0 0 0-14.222222-14.222223zM457.457778 456.704a14.208 14.208 0 0 0 10.055111-24.277333l-38.769778-38.769778a14.208 14.208 0 1 0-20.110222 20.110222l38.769778 38.769778a14.179556 14.179556 0 0 0 10.055111 4.167111zM576.554667 456.704a14.179556 14.179556 0 0 0 10.055111-4.167111l38.784-38.769778a14.208 14.208 0 1 0-20.110222-20.110222l-38.784 38.769778a14.208 14.208 0 0 0 10.055111 24.277333z" fill="" p-id="2690"></path></svg>