<?xml version="1.0" standalone="no"?><!DOCTYPE svg PUBLIC "-//W3C//DTD SVG 1.1//EN" "http://www.w3.org/Graphics/SVG/1.1/DTD/svg11.dtd"><svg t="1630168988936" class="icon" viewBox="0 0 1024 1024" version="1.1" xmlns="http://www.w3.org/2000/svg" p-id="1938" xmlns:xlink="http://www.w3.org/1999/xlink" width="200" height="200"><defs><style type="text/css"></style></defs><path d="M511.863972 1023.998976A512.004735 512.004735 0 0 1 312.620921 40.490744a511.991938 511.991938 0 0 1 398.486102 943.275724A508.652026 508.652026 0 0 1 511.863972 1023.998976z m230.338788-575.846968a63.982997 63.982997 0 1 0 63.982996 63.982996 64.059776 64.059776 0 0 0-63.982996-63.982996z m-230.338788 0a63.982997 63.982997 0 1 0 63.982997 63.982996 64.059776 64.059776 0 0 0-63.982997-63.982996z m-230.338787 0a63.982997 63.982997 0 1 0 63.982996 63.982996 64.059776 64.059776 0 0 0-63.982996-63.982996z" p-id="1939" fill="#ffffff"></path></svg>