<?xml version="1.0" standalone="no"?><!DOCTYPE svg PUBLIC "-//W3C//DTD SVG 1.1//EN" "http://www.w3.org/Graphics/SVG/1.1/DTD/svg11.dtd"><svg t="1629393833444" class="icon" viewBox="0 0 1024 1024" version="1.1" xmlns="http://www.w3.org/2000/svg" p-id="850" xmlns:xlink="http://www.w3.org/1999/xlink" width="200" height="200"><defs><style type="text/css"></style></defs><path d="M586 659.1c0-9.6-12.1-25.3-31.8-51h-84.6c-19.6 25.6-31.7 41.4-31.7 51 0.8 10.5 23.5 56.5 44.2 83.1-17.7 78.8-38.5 137.5-38.5 206.2 0 23.5 51.9 72.3 67.5 73.6h1.7c15.5-1.2 67.5-50.1 67.5-73.6 0-68.7-20.9-127.4-38.5-206.2 20.8-26.8 43.4-72.7 44.2-83.1zM512 63.5c59.9 0 116.2 23.3 158.6 65.7 42.4 42.4 65.7 98.7 65.7 158.6S712.9 404 670.6 446.3C628.2 488.7 571.9 512 512 512s-116.2-23.3-158.6-65.7-65.7-98.7-65.7-158.6 23.3-116.2 65.7-158.6c42.4-42.3 98.7-65.6 158.6-65.6M512 0C353.1 0 224.3 128.8 224.3 287.7S353.1 575.5 512 575.5s287.7-128.8 287.7-287.7S670.9 0 512 0z" fill="" p-id="851"></path><path d="M1024 1024h-63.8c0-247.1-201.1-448.2-448.2-448.2S63.8 776.9 63.8 1024H0c0-69.1 13.5-136.2 40.2-199.3C66 763.7 103 709 150 662s101.8-83.9 162.7-109.7C375.8 525.5 442.9 512 512 512s136.2 13.5 199.3 40.2C772.3 578 827 615 874 662s83.9 101.8 109.7 162.7c26.8 63.1 40.3 130.2 40.3 199.3z" fill="" p-id="852"></path></svg>