<?xml version="1.0" standalone="no"?><!DOCTYPE svg PUBLIC "-//W3C//DTD SVG 1.1//EN" "http://www.w3.org/Graphics/SVG/1.1/DTD/svg11.dtd"><svg t="1629996795419" class="icon" viewBox="0 0 1025 1024" version="1.1" xmlns="http://www.w3.org/2000/svg" p-id="1918" xmlns:xlink="http://www.w3.org/1999/xlink" width="200.1953125" height="200"><defs><style type="text/css"></style></defs><path d="M692.921981 166.276245c8.646592 34.785469 9.499874 37.686628 8.703478 73.410706-0.31287 13.766285-8.219951 77.449575-6.086746 96.989737 1.76345 16.09859 5.773876 17.378513 12.145049 30.661271 11.035782 23.095503 7.338227 54.95137 3.100258 78.245972-2.332304 12.742346-7.224456 30.888814-14.704896 41.298855-8.219951 11.490867-24.688297 11.547751-31.941195 24.944281-10.49537 19.255734-4.579281 46.304778-11.177996 67.124862-7.508882 23.579029-26.650845 25.228708-28.072983 56.117522 9.357661 1.308365 18.715321 2.673618 28.072983 3.981983 9.386104 19.93836 26.565517 60.071063 44.114686 72.159226 14.704896 4.010426 29.381348 8.049295 44.086244 12.031278 51.538241 21.132954 108.76503 46.390106 160.360156 68.1488 47.015846 19.824589 103.275581 26.90683 120.284339 76.198095 0 33.44866 3.157144 112.491029 2.303862 156.34973l-1023.938564 0c-0.881725-43.858701 2.275419-122.90107 2.275419-156.34973 16.980314-49.291265 73.268493-56.345063 120.284339-76.198095 51.62357-21.758694 108.8788-47.015846 160.360156-68.1488 14.704896-3.981983 29.409791-8.020852 44.114686-12.031278 17.549169-12.088164 34.728583-52.220867 44.086244-72.159226l20.876969-5.062807c-4.721495-26.366418-21.047626-28.414295-27.84544-47.044288-2.673618-28.072983-5.318792-56.145964-7.992409-84.190505 0.113771 1.336809-19.198848-3.526899-21.758694-5.091251-27.2197-17.065643-27.760112-86.352152-30.376844-115.164646-1.194595-13.168988 17.094085-23.977228 12.031278-48.125112-29.864875-141.417293 12.913003-207.575101 80.464505-229.532895 46.902075-18.999749 134.505708-54.240302 216.221694-3.981983l20.251229 18.772207 32.82292 5.660104C682.42661 134.790135 692.921981 166.276245 692.921981 166.276245z" p-id="1919" fill="#ffffff"></path></svg>