<?xml version="1.0" standalone="no"?><!DOCTYPE svg PUBLIC "-//W3C//DTD SVG 1.1//EN" "http://www.w3.org/Graphics/SVG/1.1/DTD/svg11.dtd"><svg t="1630052700556" class="icon" viewBox="0 0 1024 1024" version="1.1" xmlns="http://www.w3.org/2000/svg" p-id="3804" width="200" height="200" xmlns:xlink="http://www.w3.org/1999/xlink"><defs><style type="text/css"></style></defs><path d="M858.8 111.8H167.2c-29.9 0-54.2 24.3-54.2 54.2v691.6c0 29.9 24.3 54.2 54.2 54.2h691.6c29.9 0 54.2-24.3 54.2-54.2V166c0-29.9-24.3-54.2-54.2-54.2z m-17.8 728H185V374.5h656v465.3z m0-537.3H185V183.8h656v118.7z" p-id="3805" fill="#ffffff"></path><path d="M254.7 243.2m-36 0a36 36 0 1 0 72 0 36 36 0 1 0-72 0Z" p-id="3806" fill="#ffffff"></path><path d="M280 635.8l134.3 114c6.8 5.7 15 8.6 23.3 8.6 10.2 0 20.3-4.3 27.5-12.7 12.9-15.2 11-37.9-4.2-50.7L359 608.4l101.7-85.7c15.2-12.8 17.2-35.5 4.3-50.7-12.8-15.2-35.5-17.2-50.7-4.3L280.1 580.8c-8.1 6.8-12.8 16.9-12.8 27.5s4.6 20.6 12.7 27.5zM565.1 522.7l101.7 85.7L565 694.8c-15.2 12.9-17 35.6-4.2 50.7 7.1 8.4 17.3 12.7 27.5 12.7 8.2 0 16.5-2.8 23.3-8.6l134.3-114c8.1-6.9 12.7-16.9 12.7-27.5s-4.7-20.6-12.8-27.5L611.4 467.7c-15.2-12.8-37.9-10.9-50.7 4.3-12.8 15.2-10.9 37.9 4.4 50.7z" p-id="3807" fill="#ffffff"></path><path d="M353.7 243.6m-36 0a36 36 0 1 0 72 0 36 36 0 1 0-72 0Z" p-id="3808" fill="#ffffff"></path></svg>