<?xml version="1.0" standalone="no"?><!DOCTYPE svg PUBLIC "-//W3C//DTD SVG 1.1//EN" "http://www.w3.org/Graphics/SVG/1.1/DTD/svg11.dtd"><svg t="1575610748193" class="icon" viewBox="0 0 1024 1024" version="1.1" xmlns="http://www.w3.org/2000/svg" p-id="12497" xmlns:xlink="http://www.w3.org/1999/xlink" width="200" height="200"><defs><style type="text/css"></style></defs><path d="M854.848 256q0-22.848-16-38.848t-38.848-16-38.848 16-16 38.848 16 38.848 38.848 16 38.848-16 16-38.848zM982.848 91.424q0 142.272-43.136 245.984t-144.864 206.016q-46.272 45.728-111.424 100.576l-11.424 216.576q-1.152 9.152-9.152 14.848l-219.424 128q-4 2.272-9.152 2.272-6.848 0-13.152-5.152l-36.576-36.576q-7.424-8-4.576-18.272l48.576-157.728-160.576-160.576-157.728 48.576q-1.728 0.576-5.152 0.576-8 0-13.152-5.152l-36.576-36.576q-9.728-10.848-2.848-22.272l128-219.424q5.728-8 14.848-9.152l216.576-11.424q54.848-65.152 100.576-111.424 107.424-106.848 204.576-147.424t246.272-40.576q8 0 13.728 5.44t5.728 12.864z" p-id="12498" fill="#ffffff"></path></svg>