<?xml version="1.0" standalone="no"?><!DOCTYPE svg PUBLIC "-//W3C//DTD SVG 1.1//EN" "http://www.w3.org/Graphics/SVG/1.1/DTD/svg11.dtd"><svg t="1575960447440" class="icon" viewBox="0 0 1024 1024" version="1.1" xmlns="http://www.w3.org/2000/svg" p-id="4634" xmlns:xlink="http://www.w3.org/1999/xlink" width="200" height="200"><defs><style type="text/css"></style></defs><path d="M865.28 728.576H161.792c-14.336 0-26.112-11.776-26.112-26.112V223.232c0-14.336 11.776-26.112 26.112-26.112H865.28c14.336 0 26.112 11.776 26.112 26.112v478.72c0 14.848-11.776 26.624-26.112 26.624z m-677.376-52.224h651.264V249.856H187.904v426.496z" fill="#2C2C2C" p-id="4635"></path><path d="M513.536 249.856c-14.336 0-26.112-11.776-26.112-26.112v-61.44c0-14.336 11.776-26.112 26.112-26.112s26.112 11.776 26.112 26.112v60.928c0 14.848-11.776 26.624-26.112 26.624z m-322.56 654.848c-6.656 0-12.8-2.56-17.92-7.168-10.24-10.24-10.752-26.624-0.512-36.864L332.8 693.76c10.24-10.24 26.624-10.752 36.864-0.512s10.752 26.624 0.512 36.864L209.92 897.024c-5.632 4.608-12.288 7.68-18.944 7.68z m648.704 0c-6.656 0-13.824-2.56-18.944-8.192L660.48 729.6c-10.24-10.24-9.728-27.136 0.512-36.864s27.136-9.728 36.864 0.512L858.112 860.16c10.24 10.24 9.728 27.136-0.512 36.864-5.12 5.12-11.776 7.68-17.92 7.68zM459.776 572.416c-6.656 0-13.824-1.536-19.456-5.12-12.8-7.68-20.48-21.504-20.48-38.912V407.552c0-17.408 7.68-31.232 20.48-38.912s29.184-6.656 44.032 1.536L588.8 430.592c14.848 8.704 23.552 22.016 23.552 37.376s-8.704 28.672-23.552 37.376L483.84 565.76c-8.192 4.608-16.384 6.656-24.064 6.656z m11.776-148.48v88.576l76.8-44.032-76.8-44.544z" fill="#2C2C2C" p-id="4636"></path></svg>