<?xml version="1.0" standalone="no"?><!DOCTYPE svg PUBLIC "-//W3C//DTD SVG 1.1//EN" "http://www.w3.org/Graphics/SVG/1.1/DTD/svg11.dtd"><svg t="1629651180102" class="icon" viewBox="0 0 1024 1024" version="1.1" xmlns="http://www.w3.org/2000/svg" p-id="3010" xmlns:xlink="http://www.w3.org/1999/xlink" width="200" height="200"><defs><style type="text/css"></style></defs><path d="M928 128a32 32 0 0 1 32 32v512a32 32 0 0 1-32 32H608l23.488 93.92a64 64 0 0 0 41.856 45.184l40.768 13.6a32 32 0 0 1 21.888 30.368V896H288v-8.96a32 32 0 0 1 21.888-30.336l40.768-13.6a64 64 0 0 0 41.856-45.184L416 704H96a32 32 0 0 1-32-32V160a32 32 0 0 1 32-32h832z m-32 64H128v448h768V192zM355.52 275.52l271.552 90.56-87.264 48.48 87.264 87.264-45.248 45.248-87.264-87.264-48.512 87.264-90.496-271.52z" fill="#B19C4A" p-id="3011"></path></svg>