<?xml version="1.0" standalone="no"?><!DOCTYPE svg PUBLIC "-//W3C//DTD SVG 1.1//EN" "http://www.w3.org/Graphics/SVG/1.1/DTD/svg11.dtd"><svg t="1630048292531" class="icon" viewBox="0 0 1024 1024" version="1.1" xmlns="http://www.w3.org/2000/svg" p-id="2160" xmlns:xlink="http://www.w3.org/1999/xlink" width="200" height="200"><defs><style type="text/css"></style></defs><path d="M792.1 590.5l-2.4 2.1 3.1 69.3 78.6 78.6-69.3 38.5-12.5 6.9-6.9 12.5-38.5 69.3L632 755.6l165.4 7.4-7.6-170.3 125.8-115.1-125.8-115.1 7.6-170.3-170.3 7.6L512 74 396.9 199.8l-170.3-7.6 7.6 170.3-125.8 115.1 125.8 115.1-7.6 170.3 165.4-7.4-112.1 112.2-38.5-69.3-6.9-12.5-12.5-6.9-69.3-38.5 78.6-78.6 3.1-69.3-2.4-2.1L70.4 752l127.3 70.7L268.3 950l160.1-160.1-31.5-34.5L512 881.1l83.5-91.3L755.7 950l70.7-127.3L953.6 752 792.1 590.5zM512 807.1l-78.2-85.4-15.8-17.2-23.3 1-115.7 5.1 5.1-115.7 1-23.3-17.1-15.9-85.4-78.2 85.4-78.2 17.2-15.8-1-23.3-5.2-115.6 115.7 5.1 23.3 1 15.8-17.2 78.2-85.4 78.2 85.4 15.8 17.2 23.3-1 115.7-5.1-5.1 115.7-1 23.3 17.2 15.8 85.4 78.2-85.5 78.1-17.2 15.8 1 23.3 5.1 115.7-115.7-5.1-23.3-1-15.8 17.2-78.1 85.5z" fill="" p-id="2161"></path></svg>